HIERARCHY
ROOT Hips
{
	OFFSET	0.00	0.00	0.00
	CHANNELS 6 Xposition Yposition Zposition Zrotation Xrotation Yrotation
	JOINT Spine
	{
		OFFSET	 0.00	0.01	 0.00
		CHANNELS 3 Zrotation Xrotation Yrotation
		JOINT Spine1
		{
			OFFSET	 0.00	 2.45913012437421	 0.00
			CHANNELS 3 Zrotation Xrotation Yrotation
            JOINT Neck
            {
                OFFSET	 0.00	 2.48462964506057	 0.00
                CHANNELS 3 Zrotation Xrotation Yrotation
                JOINT Head
                {
                    OFFSET	 0.00	 0.927524780924562	 0.00
                    CHANNELS 3 Zrotation Xrotation Yrotation
                    End Site 
                    {
                        OFFSET	 0.00	 1.14999962169752	 0.00
                    }
                }
            }
			JOINT LeftShoulder
			{
				OFFSET	 0.00	 2.48462964506057	 0.00
				CHANNELS 3 Zrotation Xrotation Yrotation
				JOINT LeftUpArm
				{
					OFFSET	 0.00	 1.24881979654096	 0.00
					CHANNELS 3 Zrotation Xrotation Yrotation
					JOINT LeftForeArm
					{
						OFFSET	 0.00	2.59758046908119	 0.00
						CHANNELS 3 Zrotation Xrotation Yrotation
						JOINT LeftHand
						{
							OFFSET	 0.00	2.45542024364365	 0.00
							CHANNELS 3 Zrotation Xrotation Yrotation
							JOINT LeftHandThumb 
							{
								OFFSET	 0.00	0.00	 0.00
								CHANNELS 3 Zrotation Xrotation Yrotation
								End Site
								{
									OFFSET	 0.00	0.00	1.00000003353624
								}
							}
							JOINT L_Wrist_End 
							{
								OFFSET	 0.00	0.99999967115358	 0.00
								CHANNELS 3 Zrotation Xrotation Yrotation
								End Site 
								{
									OFFSET	 0.00	 0.00	 0.00
								}
							}
						}
					}
				}
			}
			JOINT RightShoulder
			{
				OFFSET	 0.00	 2.48462964506057	 0.00
				CHANNELS 3 Zrotation Xrotation Yrotation
				JOINT RightUpArm
				{
					OFFSET	 0.00	 1.24881979654096	 0.00
					CHANNELS 3 Zrotation Xrotation Yrotation
					JOINT RightForeArm
					{
						OFFSET	 0.00	2.59758046908119	 0.00
						CHANNELS 3 Zrotation Xrotation Yrotation
						JOINT RightHand
						{
							OFFSET	 0.00	2.45542024364365	 0.00
							CHANNELS 3 Zrotation Xrotation Yrotation
							JOINT RightHandThumb 
							{
								OFFSET	 0.00	0.00	 0.00
								CHANNELS 3 Zrotation Xrotation Yrotation
								End Site
								{
									OFFSET	 0.00	0.00	1.00000003353624
								}
							}
							JOINT R_Wrist_End 
							{
								OFFSET	 0.00	0.99999967115358	 0.00
								CHANNELS 3 Zrotation Xrotation Yrotation
								End Site 
								{
									OFFSET	 0.00	 0.00	 0.00
								}
							}
						}
					}
				}
			}
		}
	}
	JOINT LeftUpLeg
	{
		OFFSET	 1.2719394002717	 0.00	 0.00
		CHANNELS 3 Zrotation Xrotation Yrotation
		JOINT LeftLowLeg
		{
			OFFSET	 0.00	-4.3429100912261	 0.00
			CHANNELS 3 Zrotation Xrotation Yrotation
			JOINT LeftFoot
			{
				OFFSET	 0.00	-4.48767017425826	 0.00
				CHANNELS 3 Zrotation Xrotation Yrotation
				JOINT LeftToeBase
                {
                    OFFSET	 0.00	0.00	 1.51507020887566
                    CHANNELS 3 Zrotation Xrotation Yrotation
                    End Site 
                    {
                        OFFSET	 0.00	0.00	 0.75000010571191
                    }
                }
			}
		}
	}
	JOINT RightUpLeg
	{
		OFFSET	 -1.2719393604653	 0.00	 0.00
		CHANNELS 3 Zrotation Xrotation Yrotation
		JOINT RightLowLeg
		{
			OFFSET	 0.00	-4.3429100912261	 0.00
			CHANNELS 3 Zrotation Xrotation Yrotation
			JOINT RightFoot
			{
				OFFSET	 0.00	-4.48767017425826	 0.00
				CHANNELS 3 Zrotation Xrotation Yrotation
				JOINT RightToeBase
                {
                    OFFSET	 0.00	0.00	 1.51507020887566
                    CHANNELS 3 Zrotation Xrotation Yrotation
                    End Site 
                    {
                        OFFSET	 0.00	0.00	 0.749999965609858
                    }
                }   
			}
		}
	}
}
MOTION 
Frames:	18 
Frame Time: 0.02 
 -2.397350006103516 -7.942739868164063 9.310850219726563 51.6031 85.6533 -1493.9 2.47358 -14.8408 0.249499 -8.00211 19.0213 3.81303 14.1371 53.7693 355.195 -49.9906 -82.6984 678.641 -116.3333 -3.90793 365.976 -45.0141 5.7859 24.6184 0.0 19.7142 0.0 12.0956 -14.8204 -6.45139 0.0 0.0 0.0 0.0 0.0 0.0 121.206696 -4.14516 -361.48 47.545 0.190613 -373.542 0.0 21.3154 0.0 1.67876 -9.3103 14.4582 0.0 0.0 0.0 0.0 0.0 0.0 -5.67636 1.52567 -728.149 0.0 14.7878 0.0 2.31557 2.6535997 14.1601 0.0 -34.9804 0.0 2.67613 -0.255419 16.849 0.0 20.7507 0.0 27.631 -11.532301 -4.88462 0.0 -16.8126 0.0 
  -2.4003199768066406 -7.943170166015625 9.31073974609375 51.7967 85.6614 -1494.12 2.4563 -14.8266 0.220781 -7.99484 18.9624 3.77681 14.139 53.7308 355.24 -49.7523 -82.7439 678.858 -116.2983 -3.91293 365.948 -45.0256 5.73172 24.747 0.0 19.7605 0.0 12.1514 -14.8322 -6.33123 0.0 0.0 0.0 0.0 0.0 0.0 121.2211 -4.13843 -361.506 47.536 0.150328 -373.512 0.0 21.3402 0.0 1.6627 -9.32221 14.4306 0.0 0.0 0.0 0.0 0.0 0.0 -5.66378 1.50138 -728.145 0.0 14.8171 0.0 2.28779 2.6348 14.1653 0.0 -34.9659 0.0 2.67449 -0.270669 16.774 0.0 20.7373 0.0 27.6365 -11.4890995 -4.79442 0.0 -16.8152 0.0 
  -2.40197998046875 -7.943820190429688 9.310800170898437 52.2987 85.6799 -1494.67 2.44614 -14.8542 0.223029 -7.9873 18.9148 3.77903 14.1831 53.728 355.191 -49.891 -82.7652 678.728 -116.285904 -3.88003 365.941 -45.0454 5.67726 24.7242 0.0 19.7525 0.0 12.1959 -14.8321 -6.03878 0.0 0.0 0.0 0.0 0.0 0.0 121.216 -4.12869 -361.533 47.5433 0.127959 -373.448 0.0 21.3269 0.0 1.70619 -9.31038 14.4275 0.0 0.0 0.0 0.0 0.0 0.0 -5.6614 1.46763 -728.098 0.0 14.8159 0.0 2.27611 2.6332998 14.1607 0.0 -34.9684 0.0 2.66814 -0.31535 16.7676 0.0 20.734 0.0 27.6073 -11.461 -4.75871 0.0 -16.83312 0.0 
  -2.4055999755859374 -7.943909912109375 9.310570068359375 52.3654 85.6939 -1494.82 2.44614 -14.814 0.214852 -7.96585 18.8232 3.74984 14.1859 53.641 355.194 -49.9192 -82.8014 678.671 -116.2864 -3.87433 365.952 -45.0017 5.6361 25.024 0.0 19.8147 0.0 12.2828 -14.8532 -6.12387 0.0 0.0 0.0 0.0 0.0 0.0 121.2154 -4.15555 -361.528 47.5272 0.125185 -373.477 0.0 21.2887 0.0 1.81683 -9.33104 14.4379 0.0 0.0 0.0 0.0 0.0 0.0 -5.63644 1.45401 -728.048 0.0 14.8348 0.0 2.24217 2.6008997 14.1746 0.0 -34.9524 0.0 2.691 -0.347582 16.7774 0.0 20.7556 0.0 27.6251 -11.4338 -4.68512 0.0 -16.83531 0.0 
  -2.4085099792480467 -7.94427001953125 9.310189819335937 52.3887 85.7197 -1494.88 2.43614 -14.7798 0.180093 -7.92298 18.7254 3.70275 14.2107 53.5999 355.159 -50.0922 -82.8253 678.48 -116.2724 -3.86169 365.971 -45.0687 5.6377 24.8762 0.0 19.6901 0.0 12.0937 -14.612 -6.77084 0.0 0.0 0.0 0.0 0.0 0.0 121.2023 -4.16002 -361.533 47.5186 0.101673 -373.509 0.0 21.2803 0.0 1.8873 -9.33896 14.511 0.0 0.0 0.0 0.0 0.0 0.0 -5.60611 1.42357 -728.043 0.0 14.8814 0.0 2.23321 2.5584002 14.2024 0.0 -34.9264 0.0 2.72413 -0.377123 16.7694 0.0 20.7739 0.0 27.5887 -11.400499 -4.66091 0.0 -16.84611 0.0 
  -2.4109300231933593 -7.945130004882812 9.310040283203126 52.5394 85.7224 -1495.07 2.41843 -14.7669 0.167383 -7.91002 18.6635 3.68815 14.2754 53.5835 355.085 -50.234 -82.8503 678.329 -116.2509 -3.84846 365.983 -45.086 5.60119 24.9412 0.0 19.6878 0.0 12.1302 -14.5773 -6.70466 0.0 0.0 0.0 0.0 0.0 0.0 121.2031 -4.15966 -361.534 47.5055 0.0699232 -373.563 0.0 21.2845 0.0 1.92231 -9.34136 14.5111 0.0 0.0 0.0 0.0 0.0 0.0 -5.6004 1.41448 -728.032 0.0 14.8968 0.0 2.20304 2.5422 14.2164 0.0 -34.9224 0.0 2.72367 -0.399148 16.7172 0.0 20.7936 0.0 27.5623 -11.369301 -4.59424 0.0 -16.85213 0.0 
  -2.4155099487304685 -7.946599731445312 9.30989990234375 52.5583 85.7431 -1495.16 2.38743 -14.745 0.128299 -7.84753 18.5694 3.66112 14.2278 53.5904 355.152 -50.7702 -82.9031 677.742 -116.2077 -3.80271 365.993 -45.1561 5.52666 24.9823 0.0 19.6629 0.0 12.2147 -14.6941 -6.39858 0.0 0.0 0.0 0.0 0.0 0.0 121.1758 -4.14568 -361.547 47.5026 0.0280892 -373.61 0.0 21.2683 0.0 1.91736 -9.38426 14.4952 0.0 0.0 0.0 0.0 0.0 0.0 -5.57059 1.3903 -728.03 0.0 14.9596 0.0 2.16318 2.4934998 14.273 0.0 -34.9076 0.0 2.74757 -0.409725 16.6692 0.0 20.7773 0.0 27.5019 -11.3046 -4.52643 0.0 -16.85606 0.0 
  -2.4186000061035156 -7.9479302978515625 9.309970092773437 52.7566 85.7575 -1495.42 2.35248 -14.7489 0.108067 -7.79556 18.4919 3.66218 14.3097 53.605 355.045 -50.9791 -82.9123 677.542 -116.1762 -3.72739 365.954 -45.1933 5.34755 25.0241 0.0 19.7559 0.0 12.2784 -14.765 -6.33597 0.0 0.0 0.0 0.0 0.0 0.0 121.1424 -4.12305 -361.589 47.5081 -0.0225055 -373.615 0.0 21.2972 0.0 1.89027 -9.37915 14.447 0.0 0.0 0.0 0.0 0.0 0.0 -5.55598 1.37035 -728.018 0.0 14.9883 0.0 2.15195 2.4747 14.3096 0.0 -34.8804 0.0 2.76147 -0.417959 16.697 0.0 20.7546 0.0 27.4454 -11.277399 -4.52789 0.0 -16.88852 0.0 
  -2.4210000610351563 -7.948679809570312 9.31010986328125 52.6261 85.7689 -1495.34 2.33302 -14.7336 0.091957 -7.75185 18.449 3.6615 14.2918 53.591 355.063 -51.2136 -82.9305 677.283 -116.1431 -3.7661 365.972 -45.1948 5.30676 25.2256 0.0 19.8969 0.0 12.4831 -14.8251 -6.06708 0.0 0.0 0.0 0.0 0.0 0.0 121.0981 -4.13337 -361.602 47.5248 -0.0152407 -373.699 0.0 21.305 0.0 1.87201 -9.33349 14.037 0.0 0.0 0.0 0.0 0.0 0.0 -5.52725 1.37098 -727.96 0.0 15.0094 0.0 2.12668 2.4518995 14.2925 0.0 -34.8833 0.0 2.78635 -0.419918 16.7173 0.0 20.7525 0.0 27.4289 -11.2449 -4.51575 0.0 -16.93346 0.0 
  -2.4234500122070313 -7.949349975585937 9.310339965820312 52.5703 85.7691 -1495.35 2.29547 -14.6838 0.06968 -7.69737 18.3453 3.65309 14.3287 53.6148 355.002 -51.8564 -82.9627 676.689 -116.0972 -3.75616 365.958 -45.2675 5.19868 25.1566 0.0 19.938 0.0 12.4569 -14.7067 -6.27198 0.0 0.0 0.0 0.0 0.0 0.0 121.0576 -4.12882 -361.638 47.5248 -0.0270027 -373.784 0.0 21.3121 0.0 1.82359 -9.31814 14.2275 0.0 0.0 0.0 0.0 0.0 0.0 -5.50887 1.37062 -727.876 0.0 15.0312 0.0 2.09785 2.4399996 14.2593 0.0 -34.9006 0.0 2.80229 -0.427834 16.7568 0.0 20.7685 0.0 27.3892 -11.222799 -4.51684 0.0 -16.92357 0.0 
  -2.4276100158691407 -7.950479736328125 9.310380249023437 52.3943 85.7738 -1495.27 2.23881 -14.5718 0.0274519 -7.60632 18.0977 3.60757 14.2201 53.7603 355.152 -52.4618 -82.983 676.005 -115.9937 -3.78765 366.033 -45.2413 4.87264 25.577 0.0 20.5575 0.0 12.7475 -14.7946 -6.2085 0.0 0.0 0.0 0.0 0.0 0.0 120.9807 -4.1483 -361.751 47.5113 -0.0678998 -374.011 0.0 21.4679 0.0 1.77845 -9.38205 13.8687 0.0 0.0 0.0 0.0 0.0 0.0 -5.46529 1.3769 -727.732 0.0 15.0674 0.0 2.07788 2.4039001 14.185 0.0 -34.897102 0.0 2.84171 -0.433031 16.842 0.0 20.7877 0.0 27.3363 -11.200399 -4.54059 0.0 -16.93481 0.0 
  -2.4305499267578123 -7.952379760742187 9.3106201171875 52.8154 85.7757 -1495.78 2.18834 -14.5542 0.0189342 -7.56217 17.957 3.61408 14.2547 53.8378 355.098 -52.965 -82.9886 675.519 -115.911804 -3.82992 366.104 -45.2423 4.69556 25.8066 0.0 20.906 0.0 12.9441 -14.846 -6.56202 0.0 0.0 0.0 0.0 0.0 0.0 120.9605 -4.17109 -361.768 47.4727 -0.143592 -374.244 0.0 21.5575 0.0 1.77553 -9.43301 14.1341 0.0 0.0 0.0 0.0 0.0 0.0 -5.45208 1.38642 -727.577 0.0 15.0259 0.0 2.06594 2.4104996 14.1041 0.0 -34.9068 0.0 2.84623 -0.458203 16.9181 0.0 20.7932 0.0 27.3531 -11.2062 -4.53053 0.0 -16.92312 0.0 
  -2.4328199768066407 -7.953740234375 9.310869750976563 52.983 85.7842 -1496.01 2.14268 -14.528 -0.0162864 -7.49534 17.822 3.59395 14.1828 53.9356 355.167 -53.5395 -82.9822 674.954 -115.881 -3.90348 366.188 -45.1538 4.48278 26.2364 0.0 21.4282 0.0 13.305 -14.9525 -6.66576 0.0 0.0 0.0 0.0 0.0 0.0 120.928604 -4.15582 -361.794 47.4429 -0.271036 -374.316 0.0 21.71 0.0 1.67867 -9.43172 14.2485 0.0 0.0 0.0 0.0 0.0 0.0 -5.42853 1.39605 -727.461 0.0 15.0016 0.0 2.0487 2.4035997 14.033 0.0 -34.9274 0.0 2.86167 -0.473164 16.9692 0.0 20.7981 0.0 27.3101 -11.1966 -4.55367 0.0 -16.93923 0.0 
  -2.43697998046875 -7.956530151367187 9.310800170898437 53.2762 85.7972 -1496.38 2.03721 -14.4463 -0.0942766 -7.33332 17.5119 3.55399 13.9869 54.2103 355.378 -54.6845 -82.95 673.777 -115.8062 -4.03777 366.31 -45.125 4.11282 26.5895 0.0 22.1033 0.0 13.8067 -14.9071 -6.93366 0.0 0.0 0.0 0.0 0.0 0.0 120.9044 -4.23116 -361.846 47.3155 -0.33891 -374.635 0.0 21.7893 0.0 1.64458 -9.34716 14.3212 0.0 0.0 0.0 0.0 0.0 0.0 -5.39048 1.40463 -727.294 0.0 14.9749 0.0 2.01661 2.3830996 13.9237 0.0 -34.9808 0.0 2.8952 -0.496315 17.059 0.0 20.8192 0.0 27.2628 -11.2071 -4.59803 0.0 -16.94617 0.0 
  -2.4405799865722657 -7.959979858398437 9.310650024414063 53.7006 85.8183 -1496.86 1.91281 -14.4934 -0.194455 -7.14687 17.3936 3.56381 13.8364 54.396 355.517 -55.4292 -82.8978 673.036 -115.8165 -4.14412 366.384 -45.0587 3.82722 26.8392 0.0 22.6491 0.0 14.1974 -15.011 -6.96986 0.0 0.0 0.0 0.0 0.0 0.0 120.862305 -4.27834 -361.874 47.2177 -0.48439 -374.735 0.0 22.0338 0.0 1.53797 -9.24789 14.2403 0.0 0.0 0.0 0.0 0.0 0.0 -5.36709 1.38409 -727.225 0.0 14.9937 0.0 1.98016 2.3470001 13.8888 0.0 -34.995102 0.0 2.92402 -0.530223 17.1035 0.0 20.8504 0.0 27.2165 -11.2136 -4.62417 0.0 -16.9744 0.0 
  -2.4437300109863282 -7.96375 9.310029907226562 54.1632 85.8453 -1497.35 1.81567 -14.5852 -0.276101 -6.99867 17.3316 3.57834 13.7806 54.5555 355.55 -55.8116 -82.8394 672.667 -115.834 -4.25153 366.463 -44.9766 3.58379 27.0206 0.0 23.1168 0.0 14.3892 -15.044 -7.6044 0.0 0.0 0.0 0.0 0.0 0.0 120.8318 -4.33985 -361.879 47.1455 -0.584895 -374.744 0.0 22.1818 0.0 1.45619 -9.26636 13.9128 0.0 0.0 0.0 0.0 0.0 0.0 -5.34708 1.33817 -727.195 0.0 15.0602 0.0 1.95345 2.2929 13.8733 0.0 -35.0047 0.0 2.95367 -0.579239 17.1126 0.0 20.9052 0.0 27.1927 -11.231199 -4.61195 0.0 -16.97439 0.0 
  -2.446779937744141 -7.96781982421875 9.30906005859375 54.2399 85.8553 -1497.45 1.74148 -14.6823 -0.332964 -6.88962 17.3274 3.60603 13.8141 54.7081 355.469 -56.2631 -82.7886 672.266 -115.8371 -4.36479 366.495 -44.9592 3.41004 27.047 0.0 23.3859 0.0 14.3293 -15.2046 -8.51578 0.0 0.0 0.0 0.0 0.0 0.0 120.792 -4.41596 -361.863 47.1072 -0.623467 -374.822 0.0 22.2025 0.0 1.43261 -9.20667 13.8626 0.0 0.0 0.0 0.0 0.0 0.0 -5.3323 1.30798 -727.19 0.0 15.1662 0.0 1.93147 2.2103996 13.8837 0.0 -34.993202 0.0 2.98853 -0.604016 17.1281 0.0 20.9888 0.0 27.1472 -11.259399 -4.6075 0.0 -16.97915 0.0 
  -2.4502299499511717 -7.975980224609375 9.307990112304687 54.4024 85.8788 -1497.7 1.71885 -14.9903 -0.317031 -6.84844 17.5325 3.71623 13.9609 54.9591 355.317 -55.8538 -82.7243 672.705 -115.8297 -4.41657 366.525 -44.9726 3.25631 26.9313 0.0 23.4661 0.0 14.1073 -15.2711 -9.8529 0.0 0.0 0.0 0.0 0.0 0.0 120.7323 -4.48364 -361.869 47.1394 -0.599557 -374.74 0.0 22.1192 0.0 1.68134 -9.2111 13.7082 0.0 0.0 0.0 0.0 0.0 0.0 -5.31187 1.29745 -727.109 0.0 15.2651 0.0 1.8927 2.1000004 13.8944 0.0 -34.9687 0.0 3.02526 -0.597959 17.2029 0.0 21.0266 0.0 27.0814 -11.2852 -4.61436 0.0 -16.99047 0.0 
